<svg aria-hidden="true" style="position: absolute; width: 0; height: 0; overflow: hidden;" version="1.1" xmlns="http://www.w3.org/2000/svg" xmlns:xlink="http://www.w3.org/1999/xlink">
<defs>
<symbol id="icon-calendar" viewBox="0 0 27 32">
<path fill="#00d7ff" style="fill: var(--color1, #00d7ff)" d="M9.143 14.4h-3.048v3.2h3.048v-3.2zM15.238 14.4h-3.048v3.2h3.048v-3.2zM21.333 14.4h-3.048v3.2h3.048v-3.2zM24.381 3.2h-1.524v-3.2h-3.048v3.2h-12.191v-3.2h-3.048v3.2h-1.524c-1.691 0-3.032 1.44-3.032 3.2l-0.015 22.4c0 1.76 1.356 3.2 3.048 3.2h21.333c1.676 0 3.048-1.44 3.048-3.2v-22.4c0-1.76-1.371-3.2-3.048-3.2zM24.381 28.8h-21.333v-17.6h21.333v17.6z"></path>
</symbol>
<symbol id="icon-star" viewBox="0 0 32 32">
<path fill="#00d7ff" style="fill: var(--color1, #00d7ff)" d="M30.608 11.163l-8.812-0.833c-0.556-0.050-1.036-0.404-1.263-0.934l-3.156-7.651c-0.505-1.263-2.298-1.263-2.803 0l-3.131 7.651c-0.202 0.53-0.707 0.884-1.263 0.934l-8.813 0.833c-1.313 0.126-1.843 1.768-0.859 2.651l6.641 5.833c0.429 0.379 0.606 0.934 0.48 1.49l-1.995 8.181c-0.303 1.288 1.086 2.348 2.247 1.667l7.348-4.318c0.48-0.278 1.061-0.278 1.54 0l7.348 4.318c1.162 0.681 2.55-0.354 2.247-1.667l-1.97-8.181c-0.126-0.556 0.051-1.111 0.48-1.49l6.641-5.833c0.96-0.884 0.404-2.525-0.909-2.651z"></path>
</symbol>
<symbol id="icon-arrow" viewBox="0 0 85 32">
<path fill="#00d7ff" style="fill: var(--color1, #00d7ff)" d="M42.667 32l-36.95-32h73.901l-36.95 32z"></path>
</symbol>
<symbol id="icon-clear" viewBox="0 0 32 32">
<path fill="#db0837" style="fill: var(--color1, #db0837)" d="M32 3.223l-3.223-3.223-12.777 12.777-12.777-12.777-3.223 3.223 12.777 12.777-12.777 12.777 3.223 3.223 12.777-12.777 12.777 12.777 3.223-3.223-12.777-12.777 12.777-12.777z"></path>
</symbol>
<symbol id="icon-save" viewBox="0 0 32 32">
<path fill="#00d7ff" style="fill: var(--color1, #00d7ff)" d="M24.889 0h-21.333c-1.973 0-3.556 1.6-3.556 3.556v24.889c0 1.956 1.582 3.556 3.556 3.556h24.889c1.956 0 3.556-1.6 3.556-3.556v-21.333l-7.111-7.111zM28.444 28.444h-24.889v-24.889h19.858l5.031 5.031v19.858zM16 16c-2.951 0-5.333 2.382-5.333 5.333s2.382 5.333 5.333 5.333 5.333-2.382 5.333-5.333c0-2.951-2.382-5.333-5.333-5.333zM5.333 5.333h16v7.111h-16v-7.111z"></path>
</symbol>
<symbol id="icon-done" viewBox="0 0 45 32">
<path fill="#24d40c" style="fill: var(--color1, #24d40c)" d="M14.255 25.313l-10.691-10.030-3.564 3.343 14.255 13.373 30.545-28.657-3.564-3.343-26.982 25.313z"></path>
</symbol>
<symbol id="icon-fire" viewBox="0 0 21 32">
<path fill="#ff851c" style="fill: var(--color1, #ff851c)" d="M5.548 32c-3.546-11.722 3.946-16.001 3.946-16.001-0.524 6.255 3.019 11.128 3.019 11.128 1.303-0.395 3.79-2.238 3.79-2.238 0 2.238-1.312 7.109-1.312 7.109s4.594-3.564 6.040-9.483c1.444-5.919-2.751-11.861-2.751-11.861 0.253 4.189-1.16 8.31-3.928 11.458 0.138-0.161 0.255-0.338 0.344-0.532 0.497-0.998 1.296-3.591 0.828-9.596-0.658-8.429-8.271-11.984-8.271-11.984 0.656 5.136-1.311 6.319-5.92 16.068-4.609 9.747 4.215 15.932 4.215 15.932z"></path>
</symbol>
</defs>
</svg>
